<?xml version="1.0" standalone="no"?><!DOCTYPE svg PUBLIC "-//W3C//DTD SVG 1.1//EN" "http://www.w3.org/Graphics/SVG/1.1/DTD/svg11.dtd"><svg t="1731293303874" class="icon" viewBox="0 0 1024 1024" version="1.1" xmlns="http://www.w3.org/2000/svg" p-id="7722" xmlns:xlink="http://www.w3.org/1999/xlink" width="128" height="128"><path d="M512.376471 152.064C480.903529 287.322353 291.538824 385.385412 200.583529 327.469176a321.776941 321.776941 0 0 1-0.331294-14.351058c-0.030118 1.656471-0.120471 3.282824-0.12047 4.939294 0 174.049882 139.655529 315.151059 311.913411 315.151059 168.96 0 306.447059-135.740235 311.672471-305.167059-91.467294 56.591059-279.838118-41.200941-311.356235-175.977412z" fill="#FCE9EA" p-id="7723"></path><path d="M563.862588 663.431529c1.852235 0.496941 3.674353 1.084235 5.51153 1.641412-1.837176-0.557176-3.674353-1.144471-5.51153-1.641412z m-145.212235 8.131765c1.927529-0.963765 3.900235-1.837176 5.842823-2.740706-1.957647 0.903529-3.915294 1.776941-5.842823 2.725647z m220.672 6.957177c1.671529 0.978824 3.328 2.032941 4.999529 3.041882-1.671529-1.008941-3.312941-2.063059-4.999529-3.041882z m-184.32-13.432471c1.852235-0.557176 3.719529-1.174588 5.601882-1.656471-1.882353 0.481882-3.749647 1.099294-5.601882 1.656471z m145.347765 3.900235c1.746824 0.813176 3.493647 1.581176 5.24047 2.424471-1.746824-0.843294-3.493647-1.611294-5.24047-2.424471z m-88.289883 120.756706c-1.28 0-2.56-0.075294-3.84-0.105412l3.84 3.041883 3.84-3.041883c-1.28 0.030118-2.56 0.105412-3.84 0.105412z" fill="#A0D9F6" p-id="7724"></path><path d="M655.751529 655.992471l3.162353 1.129411a156.626824 156.626824 0 0 1-13.537882 28.882824c22.377412 34.273882 16.805647 185.193412-16.715294 161.370353l-58.368-41.381647-58.232471-41.532236-58.368 41.532236-58.23247 41.381647c-33.520941 23.823059-39.077647-127.096471-16.715294-161.370353a157.168941 157.168941 0 0 1-13.477647-28.762353c1.400471-0.512 2.816-1.024 4.231529-1.505882C253.244235 695.958588 167.770353 785.046588 134.068706 903.649882a654.848 654.848 0 0 0 377.991529 119.597177 654.863059 654.863059 0 0 0 378.277647-119.777883c-33.686588-118.256941-118.814118-207.134118-234.586353-247.491764zM378.955294 653.552941c2.198588-1.024 4.382118-2.078118 6.610824-3.041882-2.228706 0.963765-4.412235 2.017882-6.625883 3.041882z" fill="#A0D9F6" p-id="7725"></path><path d="M378.759529 686.004706c4.457412-6.836706 10.014118-9.065412 16.715295-4.306824l58.217411 41.381647 54.543059 38.671059c1.28 0.030118 2.544941 0.090353 3.84 0.090353 1.28 0 2.56-0.060235 3.824941-0.090353l54.392471-38.671059 58.383059-41.381647c6.686118-4.758588 12.242824-2.529882 16.715294 4.306824 5.466353-9.140706 10.014118-18.823529 13.522823-28.882824l-3.162353-1.129411c-3.764706-1.325176-7.589647-2.56-11.429647-3.779765-1.656471-0.527059-3.312941-1.069176-4.999529-1.581177a422.701176 422.701176 0 0 0-33.731765-8.673882l-5.24047-1.054118a448.045176 448.045176 0 0 0-30.976-5.074823c-1.837176-0.225882-3.659294-0.481882-5.51153-0.692706a456.342588 456.342588 0 0 0-18.176-1.761882h-66.93647c-6.053647 0.451765-12.107294 1.054118-18.145883 1.761882-1.882353 0.210824-3.734588 0.481882-5.601882 0.722824-6.249412 0.798118-12.483765 1.716706-18.672941 2.770823-3.960471 0.692706-7.905882 1.415529-11.836236 2.198588-1.957647 0.391529-3.915294 0.768-5.842823 1.174589a421.315765 421.315765 0 0 0-33.084235 8.508235c-2.228706 0.662588-4.412235 1.370353-6.610824 2.078117-3.162353 1.008941-6.309647 2.048-9.441882 3.132236l-4.246588 1.505882c3.508706 10.044235 8.026353 19.681882 13.492705 28.777412z" fill="#FEFEFE" p-id="7726"></path><path d="M628.675765 681.697882l-58.383059 41.381647-54.392471 38.671059-3.84 2.710588 58.232471 41.532236 58.383059 41.396706c33.505882 23.808 39.077647-127.096471 16.715294-161.385412-4.472471-6.836706-10.044235-9.065412-16.715294-4.306824z m-174.98353 41.381647l-58.23247-41.381647c-6.686118-4.758588-12.242824-2.529882-16.715294 4.306824-22.362353 34.273882-16.805647 185.193412 16.715294 161.370353l58.23247-41.381647 58.368-41.532236-3.84-2.710588-54.528-38.671059z" fill="#FA9689" p-id="7727"></path><path d="M512.376471 152.064V2.906353c-128.963765-8.899765-313.810824 110.983529-312.109177 310.211765 0.045176 4.758588 0.090353 9.517176 0.331294 14.351058 90.940235 57.916235 280.289882-40.146824 311.777883-175.405176zM512.376471 152.064c31.518118 134.776471 219.904 232.568471 311.356235 175.977412 0.331294-0.195765 0.692706-0.361412 1.008941-0.572236C835.915294 119.627294 644.713412-6.219294 512.527059 2.906353h-0.150588v149.157647z" fill="#A1A1A1" p-id="7728"></path></svg>